<?xml version="1.0" standalone="no"?>
<!DOCTYPE svg PUBLIC "-//W3C//DTD SVG 20010904//EN"
 "http://www.w3.org/TR/2001/REC-SVG-20010904/DTD/svg10.dtd">
<svg version="1.0" xmlns="http://www.w3.org/2000/svg"
 width="700.000000pt" height="700.000000pt" viewBox="0 0 700.000000 700.000000"
 preserveAspectRatio="xMidYMid meet">
<metadata>
Created by potrace 1.11, written by Peter Selinger 2001-2013
</metadata>
<g transform="translate(0.000000,700.000000) scale(0.100000,-0.100000)"
fill="#000000" stroke="none">
<path d="M661 6630 c204 -203 374 -370 378 -370 6 0 538 536 730 736 2 2 -329
4 -737 4 l-741 0 370 -370z"/>
<path d="M1848 6488 c-278 -282 -509 -516 -512 -519 -4 -4 112 -126 258 -272
l265 -264 345 346 c190 190 474 477 631 636 157 160 352 356 433 438 l147 147
-531 0 -530 0 -506 -512z"/>
<path d="M3893 6898 l-103 -103 265 -271 265 -271 189 191 c104 105 248 252
321 326 72 74 152 156 178 183 l46 47 -530 0 -529 0 -102 -102z"/>
<path d="M5257 6618 c-207 -211 -435 -441 -506 -513 -72 -71 -131 -135 -131
-141 0 -6 117 -128 260 -272 l261 -261 392 393 c216 216 568 569 784 784 l392
392 -538 0 -537 0 -377 -382z"/>
<path d="M0 6172 l0 -537 232 -228 c128 -126 362 -357 519 -513 l286 -284 266
265 266 266 -785 784 -784 785 0 -538z"/>
<path d="M6618 6331 l-367 -369 137 -135 c75 -75 200 -197 277 -272 77 -75
184 -180 238 -233 l97 -97 0 738 c0 405 -3 737 -7 737 -5 -1 -173 -167 -375
-369z"/>
<path d="M3249 6248 c-134 -138 -252 -259 -262 -268 -17 -16 16 -51 654 -689
369 -369 675 -671 680 -671 5 0 126 118 270 261 l261 262 -24 22 c-13 12 -315
317 -673 678 -357 362 -652 657 -655 657 -4 0 -116 -113 -251 -252z"/>
<path d="M2412 5405 l-264 -264 676 -675 675 -675 260 261 c144 143 261 265
261 270 0 9 -1334 1348 -1342 1348 -2 0 -122 -120 -266 -265z"/>
<path d="M5693 5406 l-262 -264 297 -295 c163 -163 515 -512 782 -776 l485
-479 3 526 2 527 -517 512 c-285 282 -520 512 -523 512 -3 0 -123 -119 -267
-263z"/>
<path d="M0 4524 l0 -529 103 -103 102 -102 271 265 272 265 -192 189 c-183
181 -428 421 -515 506 l-41 39 0 -530z"/>
<path d="M1181 4175 l-674 -674 266 -265 265 -265 675 675 675 675 -252 252
c-139 139 -259 257 -267 264 -11 9 -137 -111 -688 -662z"/>
<path d="M4464 4176 l-676 -675 266 -266 265 -265 675 676 676 676 -132 132
c-73 72 -192 192 -265 265 l-132 133 -677 -676z"/>
<path d="M2001 3355 l-673 -675 265 -265 265 -265 675 676 676 675 -266 264
c-146 146 -266 265 -266 265 -1 -1 -305 -304 -676 -675z"/>
<path d="M5282 3354 l-673 -674 265 -265 264 -265 676 675 677 675 -266 265
c-147 146 -267 265 -268 264 -1 0 -305 -304 -675 -675z"/>
<path d="M0 2885 l0 -530 507 -500 c278 -275 512 -506 519 -513 10 -10 64 39
277 253 l265 264 -359 358 c-198 197 -489 485 -647 641 -158 156 -349 345
-424 420 l-138 137 0 -530z"/>
<path d="M3232 2944 l-264 -264 676 -675 675 -676 265 266 265 265 -653 652
c-359 359 -664 663 -677 675 l-24 21 -263 -264z"/>
<path d="M6660 3079 c-74 -72 -196 -191 -271 -265 l-136 -133 166 -165 c91
-91 258 -255 371 -365 l205 -200 3 527 2 527 -102 102 -103 102 -135 -130z"/>
<path d="M5697 2125 l-266 -265 782 -782 782 -782 3 535 2 534 -304 300 c-168
165 -402 396 -520 513 l-214 212 -265 -265z"/>
<path d="M2407 2119 l-259 -260 321 -322 c176 -177 480 -484 676 -682 l355
-360 151 155 c82 85 202 208 265 272 l115 116 -671 671 c-369 369 -676 671
-683 671 -7 -1 -128 -118 -270 -261z"/>
<path d="M0 1037 c0 -405 2 -737 5 -737 2 0 170 166 373 369 l370 370 -152
150 c-83 83 -223 220 -311 306 -88 86 -188 184 -222 218 l-63 61 0 -737z"/>
<path d="M1072 784 l-783 -784 538 0 538 0 253 257 c139 142 370 376 513 519
l259 262 -253 253 c-139 140 -260 259 -268 265 -11 9 -160 -135 -797 -772z"/>
<path d="M4757 1182 c-212 -213 -561 -565 -776 -782 l-390 -395 527 -3 527 -3
268 273 c148 150 379 384 514 520 l246 247 -134 134 c-74 73 -193 192 -266
265 l-131 131 -385 -387z"/>
<path d="M2476 541 c-112 -113 -276 -280 -365 -371 l-161 -165 527 -3 528 -2
102 102 102 103 -135 140 c-75 77 -194 199 -265 271 l-130 131 -203 -206z"/>
<path d="M5807 592 c-86 -86 -250 -254 -366 -372 l-210 -215 731 -3 c402 -1
733 0 736 2 2 3 -162 171 -366 375 l-369 370 -156 -157z"/>
</g>
</svg>
